<svg width="32" height="32" viewBox="0 0 32 32" fill="none" xmlns="http://www.w3.org/2000/svg">
<path d="M16 25.3333C16.2637 25.3333 16.5215 25.2551 16.7408 25.1086C16.96 24.9621 17.1309 24.7539 17.2318 24.5103C17.3328 24.2666 17.3592 23.9985 17.3077 23.7399C17.2563 23.4812 17.1293 23.2437 16.9428 23.0572C16.7563 22.8707 16.5188 22.7437 16.2601 22.6923C16.0015 22.6408 15.7334 22.6673 15.4898 22.7682C15.2461 22.8691 15.0379 23.04 14.8914 23.2592C14.7449 23.4785 14.6667 23.7363 14.6667 24C14.6667 24.3536 14.8071 24.6928 15.0572 24.9428C15.3072 25.1929 15.6464 25.3333 16 25.3333ZM22.6667 25.3333C22.9304 25.3333 23.1882 25.2551 23.4074 25.1086C23.6267 24.9621 23.7976 24.7539 23.8985 24.5103C23.9994 24.2666 24.0258 23.9985 23.9744 23.7399C23.9229 23.4812 23.7959 23.2437 23.6095 23.0572C23.423 22.8707 23.1854 22.7437 22.9268 22.6923C22.6681 22.6408 22.4001 22.6673 22.1564 22.7682C21.9128 22.8691 21.7045 23.04 21.558 23.2592C21.4115 23.4785 21.3333 23.7363 21.3333 24C21.3333 24.3536 21.4738 24.6928 21.7239 24.9428C21.9739 25.1929 22.313 25.3333 22.6667 25.3333ZM22.6667 20C22.9304 20 23.1882 19.9218 23.4074 19.7753C23.6267 19.6288 23.7976 19.4206 23.8985 19.1769C23.9994 18.9333 24.0258 18.6652 23.9744 18.4066C23.9229 18.1479 23.7959 17.9103 23.6095 17.7239C23.423 17.5374 23.1854 17.4104 22.9268 17.359C22.6681 17.3075 22.4001 17.3339 22.1564 17.4348C21.9128 17.5358 21.7045 17.7066 21.558 17.9259C21.4115 18.1452 21.3333 18.403 21.3333 18.6667C21.3333 19.0203 21.4738 19.3594 21.7239 19.6095C21.9739 19.8595 22.313 20 22.6667 20ZM16 20C16.2637 20 16.5215 19.9218 16.7408 19.7753C16.96 19.6288 17.1309 19.4206 17.2318 19.1769C17.3328 18.9333 17.3592 18.6652 17.3077 18.4066C17.2563 18.1479 17.1293 17.9103 16.9428 17.7239C16.7563 17.5374 16.5188 17.4104 16.2601 17.359C16.0015 17.3075 15.7334 17.3339 15.4898 17.4348C15.2461 17.5358 15.0379 17.7066 14.8914 17.9259C14.7449 18.1452 14.6667 18.403 14.6667 18.6667C14.6667 19.0203 14.8071 19.3594 15.0572 19.6095C15.3072 19.8595 15.6464 20 16 20ZM25.3333 4.00001H24V2.66668C24 2.31305 23.8595 1.97392 23.6095 1.72387C23.3594 1.47382 23.0203 1.33334 22.6667 1.33334C22.313 1.33334 21.9739 1.47382 21.7239 1.72387C21.4738 1.97392 21.3333 2.31305 21.3333 2.66668V4.00001H10.6667V2.66668C10.6667 2.31305 10.5262 1.97392 10.2761 1.72387C10.0261 1.47382 9.68695 1.33334 9.33333 1.33334C8.97971 1.33334 8.64057 1.47382 8.39052 1.72387C8.14048 1.97392 8 2.31305 8 2.66668V4.00001H6.66667C5.6058 4.00001 4.58838 4.42144 3.83824 5.17158C3.08809 5.92173 2.66667 6.93914 2.66667 8.00001V26.6667C2.66667 27.7275 3.08809 28.745 3.83824 29.4951C4.58838 30.2452 5.6058 30.6667 6.66667 30.6667H25.3333C26.3942 30.6667 27.4116 30.2452 28.1618 29.4951C28.9119 28.745 29.3333 27.7275 29.3333 26.6667V8.00001C29.3333 6.93914 28.9119 5.92173 28.1618 5.17158C27.4116 4.42144 26.3942 4.00001 25.3333 4.00001ZM26.6667 26.6667C26.6667 27.0203 26.5262 27.3594 26.2761 27.6095C26.0261 27.8595 25.687 28 25.3333 28H6.66667C6.31304 28 5.97391 27.8595 5.72386 27.6095C5.47381 27.3594 5.33333 27.0203 5.33333 26.6667V14.6667H26.6667V26.6667ZM26.6667 12H5.33333V8.00001C5.33333 7.64639 5.47381 7.30725 5.72386 7.0572C5.97391 6.80715 6.31304 6.66668 6.66667 6.66668H8V8.00001C8 8.35363 8.14048 8.69277 8.39052 8.94282C8.64057 9.19287 8.97971 9.33334 9.33333 9.33334C9.68695 9.33334 10.0261 9.19287 10.2761 8.94282C10.5262 8.69277 10.6667 8.35363 10.6667 8.00001V6.66668H21.3333V8.00001C21.3333 8.35363 21.4738 8.69277 21.7239 8.94282C21.9739 9.19287 22.313 9.33334 22.6667 9.33334C23.0203 9.33334 23.3594 9.19287 23.6095 8.94282C23.8595 8.69277 24 8.35363 24 8.00001V6.66668H25.3333C25.687 6.66668 26.0261 6.80715 26.2761 7.0572C26.5262 7.30725 26.6667 7.64639 26.6667 8.00001V12ZM9.33333 20C9.59704 20 9.85483 19.9218 10.0741 19.7753C10.2934 19.6288 10.4643 19.4206 10.5652 19.1769C10.6661 18.9333 10.6925 18.6652 10.641 18.4066C10.5896 18.1479 10.4626 17.9103 10.2761 17.7239C10.0897 17.5374 9.85209 17.4104 9.59345 17.359C9.33481 17.3075 9.06672 17.3339 8.82309 17.4348C8.57945 17.5358 8.37122 17.7066 8.22471 17.9259C8.0782 18.1452 8 18.403 8 18.6667C8 19.0203 8.14048 19.3594 8.39052 19.6095C8.64057 19.8595 8.97971 20 9.33333 20ZM9.33333 25.3333C9.59704 25.3333 9.85483 25.2551 10.0741 25.1086C10.2934 24.9621 10.4643 24.7539 10.5652 24.5103C10.6661 24.2666 10.6925 23.9985 10.641 23.7399C10.5896 23.4812 10.4626 23.2437 10.2761 23.0572C10.0897 22.8707 9.85209 22.7437 9.59345 22.6923C9.33481 22.6408 9.06672 22.6673 8.82309 22.7682C8.57945 22.8691 8.37122 23.04 8.22471 23.2592C8.0782 23.4785 8 23.7363 8 24C8 24.3536 8.14048 24.6928 8.39052 24.9428C8.64057 25.1929 8.97971 25.3333 9.33333 25.3333Z" fill="white"/>
</svg>
