<svg width="32" height="32" viewBox="0 0 32 32" fill="none" xmlns="http://www.w3.org/2000/svg">
<path d="M28.0001 21.3333H9.33342C8.97979 21.3333 8.64065 21.1928 8.39061 20.9428C8.14056 20.6928 8.00008 20.3536 8.00008 20C8.00008 19.6464 8.14056 19.3072 8.39061 19.0572C8.64065 18.8071 8.97979 18.6667 9.33342 18.6667H23.2534C24.145 18.6667 25.011 18.3689 25.7139 17.8206C26.4169 17.2722 26.9165 16.5047 27.1334 15.64L29.3334 6.98666C29.3834 6.78987 29.3877 6.58427 29.3461 6.38555C29.3045 6.18683 29.2181 6.00023 29.0934 5.83999C28.9637 5.67563 28.7972 5.54412 28.6073 5.4561C28.4173 5.36807 28.2093 5.32601 28.0001 5.33332H9.01342C8.73833 4.55526 8.22932 3.88132 7.55617 3.40391C6.88302 2.92649 6.07867 2.66898 5.25341 2.66666H4.00008C3.64646 2.66666 3.30732 2.80713 3.05727 3.05718C2.80722 3.30723 2.66675 3.64637 2.66675 3.99999C2.66675 4.35361 2.80722 4.69275 3.05727 4.9428C3.30732 5.19285 3.64646 5.33332 4.00008 5.33332H5.25341C5.55799 5.32445 5.85642 5.42017 6.09902 5.60454C6.34162 5.78892 6.51375 6.05082 6.58675 6.34666L6.66675 6.98666L8.97341 16C7.91255 16.0477 6.9141 16.5149 6.19771 17.2988C5.48132 18.0827 5.10568 19.1191 5.15341 20.18C5.20115 21.2409 5.66836 22.2393 6.45227 22.9557C7.23617 23.6721 8.27255 24.0477 9.33342 24H9.57341C9.35413 24.6042 9.28366 25.2523 9.36799 25.8895C9.45231 26.5267 9.68894 27.1341 10.0578 27.6605C10.4267 28.1868 10.917 28.6165 11.4872 28.9131C12.0574 29.2098 12.6907 29.3647 13.3334 29.3647C13.9762 29.3647 14.6094 29.2098 15.1796 28.9131C15.7498 28.6165 16.2401 28.1868 16.609 27.6605C16.9779 27.1341 17.2145 26.5267 17.2988 25.8895C17.3832 25.2523 17.3127 24.6042 17.0934 24H20.2401C20.0208 24.6042 19.9503 25.2523 20.0347 25.8895C20.119 26.5267 20.3556 27.1341 20.7245 27.6605C21.0934 28.1868 21.5837 28.6165 22.1539 28.9131C22.7241 29.2098 23.3573 29.3647 24.0001 29.3647C24.6428 29.3647 25.2761 29.2098 25.8463 28.9131C26.4165 28.6165 26.9068 28.1868 27.2757 27.6605C27.6446 27.1341 27.8812 26.5267 27.9655 25.8895C28.0498 25.2523 27.9794 24.6042 27.7601 24H28.0001C28.3537 24 28.6928 23.8595 28.9429 23.6095C29.1929 23.3594 29.3334 23.0203 29.3334 22.6667C29.3334 22.313 29.1929 21.9739 28.9429 21.7238C28.6928 21.4738 28.3537 21.3333 28.0001 21.3333ZM26.2934 7.99999L24.5467 14.9867C24.4737 15.2825 24.3016 15.5444 24.059 15.7288C23.8164 15.9131 23.518 16.0089 23.2134 16H11.7067L9.70675 7.99999H26.2934ZM13.3334 26.6667C13.0697 26.6667 12.8119 26.5885 12.5927 26.442C12.3734 26.2954 12.2025 26.0872 12.1016 25.8436C12.0007 25.5999 11.9743 25.3318 12.0257 25.0732C12.0771 24.8146 12.2041 24.577 12.3906 24.3905C12.5771 24.204 12.8147 24.0771 13.0733 24.0256C13.3319 23.9742 13.6 24.0006 13.8437 24.1015C14.0873 24.2024 14.2955 24.3733 14.442 24.5926C14.5885 24.8118 14.6667 25.0696 14.6667 25.3333C14.6667 25.6869 14.5263 26.0261 14.2762 26.2761C14.0262 26.5262 13.687 26.6667 13.3334 26.6667ZM24.0001 26.6667C23.7364 26.6667 23.4786 26.5885 23.2593 26.442C23.0401 26.2954 22.8692 26.0872 22.7682 25.8436C22.6673 25.5999 22.6409 25.3318 22.6924 25.0732C22.7438 24.8146 22.8708 24.577 23.0573 24.3905C23.2437 24.204 23.4813 24.0771 23.74 24.0256C23.9986 23.9742 24.2667 24.0006 24.5103 24.1015C24.754 24.2024 24.9622 24.3733 25.1087 24.5926C25.2552 24.8118 25.3334 25.0696 25.3334 25.3333C25.3334 25.6869 25.1929 26.0261 24.9429 26.2761C24.6928 26.5262 24.3537 26.6667 24.0001 26.6667Z" fill="white"/>
</svg>
