<svg width="32" height="32" viewBox="0 0 32 32" fill="none" xmlns="http://www.w3.org/2000/svg">
<path d="M26.8797 6.66668C25.4663 5.24963 23.5928 4.38474 21.5975 4.22824C19.6022 4.07175 17.6167 4.63397 15.9997 5.81335C14.3033 4.55153 12.1917 3.97937 10.0903 4.21207C7.98885 4.44477 6.05364 5.46505 4.67435 7.06746C3.29506 8.66987 2.57415 10.7354 2.65678 12.848C2.73942 14.9607 3.61947 16.9636 5.11972 18.4534L13.3997 26.7467C14.0931 27.4291 15.0269 27.8115 15.9997 27.8115C16.9725 27.8115 17.9064 27.4291 18.5997 26.7467L26.8797 18.4534C28.4365 16.887 29.3103 14.7684 29.3103 12.56C29.3103 10.3517 28.4365 8.23299 26.8797 6.66668V6.66668ZM24.9997 16.6134L16.7197 24.8934C16.6255 24.9885 16.5134 25.064 16.3898 25.1156C16.2662 25.1671 16.1336 25.1936 15.9997 25.1936C15.8658 25.1936 15.7332 25.1671 15.6097 25.1156C15.4861 25.064 15.3739 24.9885 15.2797 24.8934L6.99972 16.5734C5.95406 15.5045 5.36853 14.0686 5.36853 12.5734C5.36853 11.0781 5.95406 9.64222 6.99972 8.57335C8.06526 7.52133 9.50235 6.93144 10.9997 6.93144C12.4971 6.93144 13.9342 7.52133 14.9997 8.57335C15.1237 8.69832 15.2711 8.79751 15.4336 8.86521C15.5961 8.9329 15.7704 8.96775 15.9464 8.96775C16.1224 8.96775 16.2967 8.9329 16.4592 8.86521C16.6216 8.79751 16.7691 8.69832 16.8931 8.57335C17.9586 7.52133 19.3957 6.93144 20.8931 6.93144C22.3904 6.93144 23.8275 7.52133 24.893 8.57335C25.9531 9.62822 26.5578 11.0563 26.5778 12.5516C26.5977 14.0469 26.0312 15.4906 24.9997 16.5734V16.6134Z" fill="white"/>
</svg>
