<svg width="32" height="32" viewBox="0 0 32 32" fill="none" xmlns="http://www.w3.org/2000/svg">
<path d="M18 13C18 12.4477 17.5523 12 17 12H9C8.44772 12 8 12.4477 8 13C8 13.5523 8.44772 14 9 14H17C17.5523 14 18 13.5523 18 13Z" fill="white"/>
<path d="M16.6667 17C16.6667 16.4477 16.219 16 15.6667 16H9C8.44772 16 8 16.4477 8 17C8 17.5523 8.44772 18 9 18H15.6667C16.219 18 16.6667 17.5523 16.6667 17Z" fill="white"/>
<path d="M17 20C17.5523 20 18 20.4477 18 21C18 21.5523 17.5523 22 17 22H9C8.44772 22 8 21.5523 8 21C8 20.4477 8.44772 20 9 20H17Z" fill="white"/>
<path fill-rule="evenodd" clip-rule="evenodd" d="M8 29H25.3333C27.3584 29 29 27.3584 29 25.3333V18C29 17.4477 28.5523 17 28 17H23.6667V6.59092C23.6667 4.69305 21.5215 3.58909 19.9771 4.69221L19.7437 4.85892C18.7031 5.60224 17.2934 5.59975 16.2479 4.85293C14.5094 3.61116 12.1572 3.61116 10.4188 4.85293C9.37322 5.59975 7.96361 5.60224 6.92295 4.85892L6.68956 4.69221C5.1452 3.58909 3 4.69305 3 6.59092V24C3 26.7614 5.23858 29 8 29ZM11.5812 6.4804C12.6243 5.73533 14.0423 5.73533 15.0854 6.4804C16.8215 7.72043 19.1653 7.72991 20.9062 6.48639L21.1396 6.31967C21.3602 6.16209 21.6667 6.31979 21.6667 6.59092V25.3333C21.6667 25.9335 21.8109 26.5 22.0665 27H8C6.34315 27 5 25.6569 5 24V6.59092C5 6.31979 5.30646 6.16209 5.52708 6.31967L5.76048 6.48639C7.5014 7.72991 9.8452 7.72043 11.5812 6.4804ZM23.6667 25.3333V19H27V25.3333C27 26.2538 26.2538 27 25.3333 27C24.4129 27 23.6667 26.2538 23.6667 25.3333Z" fill="white"/>
</svg>
