<svg width="16" height="16" viewBox="0 0 16 16" fill="none" xmlns="http://www.w3.org/2000/svg">
<path d="M14.6667 4.82667C14.6672 4.73893 14.6504 4.65196 14.6172 4.57073C14.584 4.48951 14.5351 4.41563 14.4733 4.35334L11.6467 1.52667C11.5844 1.46489 11.5105 1.416 11.4293 1.38283C11.348 1.34965 11.2611 1.33283 11.1733 1.33334C11.0856 1.33283 10.9986 1.34965 10.9174 1.38283C10.8362 1.416 10.7623 1.46489 10.7 1.52667L8.81333 3.41334L1.52667 10.7C1.46488 10.7623 1.41599 10.8362 1.38282 10.9174C1.34964 10.9986 1.33282 11.0856 1.33333 11.1733V14C1.33333 14.1768 1.40357 14.3464 1.52859 14.4714C1.65362 14.5964 1.82319 14.6667 2 14.6667H4.82666C4.91995 14.6717 5.01326 14.6572 5.10054 14.6239C5.18783 14.5905 5.26714 14.5393 5.33333 14.4733L12.58 7.18667L14.4733 5.33334C14.5342 5.26873 14.5838 5.19436 14.62 5.11334C14.6264 5.0602 14.6264 5.00648 14.62 4.95334C14.6231 4.92231 14.6231 4.89104 14.62 4.86001L14.6667 4.82667ZM4.55333 13.3333H2.66666V11.4467L9.28666 4.82667L11.1733 6.71334L4.55333 13.3333ZM12.1133 5.77334L10.2267 3.88667L11.1733 2.94667L13.0533 4.82667L12.1133 5.77334Z" fill="white"/>
</svg>
