<svg width="32" height="32" viewBox="0 0 32 32" fill="none" xmlns="http://www.w3.org/2000/svg">
<path d="M25.3333 14.6667H17.3333V6.66668C17.3333 6.31305 17.1929 5.97392 16.9428 5.72387C16.6928 5.47382 16.3536 5.33334 16 5.33334C15.6464 5.33334 15.3072 5.47382 15.0572 5.72387C14.8071 5.97392 14.6667 6.31305 14.6667 6.66668V14.6667H6.66667C6.31304 14.6667 5.97391 14.8072 5.72386 15.0572C5.47381 15.3072 5.33333 15.6464 5.33333 16C5.33333 16.3536 5.47381 16.6928 5.72386 16.9428C5.97391 17.1929 6.31304 17.3333 6.66667 17.3333H14.6667V25.3333C14.6667 25.687 14.8071 26.0261 15.0572 26.2762C15.3072 26.5262 15.6464 26.6667 16 26.6667C16.3536 26.6667 16.6928 26.5262 16.9428 26.2762C17.1929 26.0261 17.3333 25.687 17.3333 25.3333V17.3333H25.3333C25.687 17.3333 26.0261 17.1929 26.2761 16.9428C26.5262 16.6928 26.6667 16.3536 26.6667 16C26.6667 15.6464 26.5262 15.3072 26.2761 15.0572C26.0261 14.8072 25.687 14.6667 25.3333 14.6667Z" fill="white"/>
</svg>
