<svg width="32" height="32" viewBox="0 0 32 32" fill="none" xmlns="http://www.w3.org/2000/svg">
<path d="M25.3333 9.33332H21.3333V7.99999C21.3333 6.5855 20.7713 5.22895 19.7712 4.22875C18.771 3.22856 17.4144 2.66666 15.9999 2.66666C14.5854 2.66666 13.2289 3.22856 12.2287 4.22875C11.2285 5.22895 10.6666 6.5855 10.6666 7.99999V9.33332H6.66659C6.31296 9.33332 5.97383 9.4738 5.72378 9.72385C5.47373 9.9739 5.33325 10.313 5.33325 10.6667V25.3333C5.33325 26.3942 5.75468 27.4116 6.50482 28.1618C7.25497 28.9119 8.27239 29.3333 9.33325 29.3333H22.6666C23.7275 29.3333 24.7449 28.9119 25.495 28.1618C26.2452 27.4116 26.6666 26.3942 26.6666 25.3333V10.6667C26.6666 10.313 26.5261 9.9739 26.2761 9.72385C26.026 9.4738 25.6869 9.33332 25.3333 9.33332ZM13.3333 7.99999C13.3333 7.29275 13.6142 6.61447 14.1143 6.11437C14.6144 5.61427 15.2927 5.33332 15.9999 5.33332C16.7072 5.33332 17.3854 5.61427 17.8855 6.11437C18.3856 6.61447 18.6666 7.29275 18.6666 7.99999V9.33332H13.3333V7.99999ZM23.9999 25.3333C23.9999 25.6869 23.8594 26.0261 23.6094 26.2761C23.3593 26.5262 23.0202 26.6667 22.6666 26.6667H9.33325C8.97963 26.6667 8.64049 26.5262 8.39044 26.2761C8.14039 26.0261 7.99992 25.6869 7.99992 25.3333V12H10.6666V13.3333C10.6666 13.6869 10.8071 14.0261 11.0571 14.2761C11.3072 14.5262 11.6463 14.6667 11.9999 14.6667C12.3535 14.6667 12.6927 14.5262 12.9427 14.2761C13.1928 14.0261 13.3333 13.6869 13.3333 13.3333V12H18.6666V13.3333C18.6666 13.6869 18.8071 14.0261 19.0571 14.2761C19.3072 14.5262 19.6463 14.6667 19.9999 14.6667C20.3535 14.6667 20.6927 14.5262 20.9427 14.2761C21.1928 14.0261 21.3333 13.6869 21.3333 13.3333V12H23.9999V25.3333Z" fill="white"/>
</svg>
