<svg width="56" height="60" viewBox="0 0 56 60" fill="none" xmlns="http://www.w3.org/2000/svg">
<path d="M8.62133 27.028C9.08125 26.7756 9.55506 26.5416 10.05 26.335C12.011 25.5182 14.2136 25.103 16.5938 25.103C17.9144 25.103 19.1981 25.2347 20.4145 25.4374L13.1368 20.5058L25.0324 26.6011C25.8792 26.8886 26.614 27.1753 27.2067 27.4247C27.2087 27.419 27.2116 27.4111 27.2145 27.4032C26.4358 24.296 24.1923 17.5867 18.817 14.4033C16.1795 12.8421 13.1581 12.3507 10.3989 12.3507C5.70313 12.3507 1.7655 13.7737 1.7655 13.7737C1.7655 13.7737 3.10878 22.2737 8.62133 27.028Z" fill="#F98B80"/>
<path d="M12.3513 36.4918L20.2372 32.6256C22.0433 30.8585 23.8308 29.568 24.9751 28.8245C22.8669 28.0602 19.8191 27.2183 16.5929 27.2183C14.6895 27.2183 12.7245 27.5107 10.863 28.2873C3.21878 31.4715 0.153595 41.5719 0.153595 41.5719C0.153595 41.5719 5.48877 44.3954 11.3951 44.3954C12.3065 44.3954 13.2322 44.3232 14.1535 44.1674C14.1982 43.6946 14.2509 43.2211 14.3415 42.7444C14.974 39.4139 16.704 36.5766 18.6535 34.3068L12.3513 36.4918Z" fill="#F98B80"/>
<path d="M24.088 46.4079L26.0996 30.6177C23.5977 32.2521 17.6339 36.7424 16.4184 43.139C14.8727 51.2743 21.6232 59.3894 21.6232 59.3894C21.6232 59.3894 30.5969 54.4526 32.3355 46.5239C28.9338 42.8886 27.6288 37.9734 27.1463 34.3661L24.088 46.4079Z" fill="#F98B80"/>
<path d="M45.5605 33.7667C45.2856 33.5182 44.9857 33.3155 44.695 33.0932C43.0547 33.5884 41.2809 33.8535 39.3783 33.8535C37.3783 33.8535 35.4836 33.5678 33.8081 33.1975L41.4009 40.9908L30.5899 32.3115C29.9819 32.1079 29.437 31.9129 29.0207 31.7471C29.2039 35.0834 30.1405 41.7646 34.6055 45.8222C38.5751 49.4283 44.3548 50.0639 47.9358 50.0639C49.8842 50.0639 51.1814 49.8756 51.1814 49.8756C51.1814 49.8756 51.6883 39.3339 45.5605 33.7667Z" fill="#F98B80"/>
<path d="M44.0224 22.2834L31.6873 28.9715C31.1407 29.3945 30.6679 29.7258 30.2995 29.9695C32.1758 30.674 35.6173 31.7394 39.3784 31.7394C41.5256 31.7394 43.7642 31.3885 45.8461 30.4188C53.3529 26.9236 56 16.7045 56 16.7045C56 16.7045 51.0303 14.3313 45.4417 14.3313C43.3354 14.3323 41.1442 14.6773 39.0956 15.6042C38.9181 20.0193 37.0324 23.4198 34.964 25.8477L44.0224 22.2834Z" fill="#F98B80"/>
<path d="M28.1924 23.4414L28.8162 13.2133L29.3842 22.5075C29.3842 22.5075 29.3851 22.5065 29.3851 22.5054L29.354 23.5259L29.2663 28.0385C35.237 23.9038 43.1498 12.8723 28.8162 0C28.8162 0 21.8357 5.76497 20.8092 13.1986C24.6612 15.882 26.9273 20.0768 28.1924 23.4414Z" fill="#F98B80"/>
</svg>
