<svg width="131" height="36" viewBox="0 0 131 36" fill="none" xmlns="http://www.w3.org/2000/svg">
<path d="M8.97369 0.919998L16.3177 15.992L23.7577 0.919998H32.3497L20.2057 23.384V35H12.3817V23.288L0.429688 0.919998H8.97369ZM59.4738 28.088V35H35.5218V0.919998H59.0418V7.832H43.3938V14.456H56.8338V20.84H43.3938V28.088H59.4738ZM72.1282 15.512V35H64.2562V0.919998H70.4962L86.2882 20.984V0.919998H94.1602V35H87.7282L72.1282 15.512ZM115.126 35.24C112.886 35.24 110.774 34.824 108.79 33.992C106.806 33.128 105.062 31.928 103.558 30.392C102.054 28.824 100.87 26.984 100.006 24.872C99.1741 22.728 98.7581 20.344 98.7581 17.72C98.7581 15.352 99.1901 13.144 100.054 11.096C100.918 9.048 102.118 7.24 103.654 5.672C105.19 4.104 106.982 2.888 109.03 2.024C111.11 1.128 113.35 0.679998 115.75 0.679998C118.886 0.679998 121.654 1.352 124.054 2.696C126.454 4.04 128.23 5.848 129.382 8.12L123.526 12.536C122.758 11.032 121.638 9.848 120.166 8.984C118.726 8.12 117.158 7.688 115.462 7.688C114.182 7.688 112.998 7.96 111.91 8.504C110.854 9.016 109.926 9.752 109.126 10.712C108.358 11.64 107.766 12.728 107.35 13.976C106.934 15.224 106.726 16.568 106.726 18.008C106.726 19.48 106.95 20.84 107.398 22.088C107.846 23.336 108.47 24.424 109.27 25.352C110.07 26.248 111.014 26.952 112.102 27.464C113.222 27.976 114.454 28.232 115.798 28.232C117.43 28.232 118.982 27.832 120.454 27.032C121.958 26.2 123.334 24.984 124.582 23.384V31.16C121.862 33.88 118.71 35.24 115.126 35.24ZM124.102 22.904H117.478V17.192H130.63V35H124.102V22.904Z" fill="#F98B80"/>
</svg>
